<?xml version="1.0" encoding="iso-8859-1"?>
<!-- Generator: Adobe Illustrator 19.0.0, SVG Export Plug-In . SVG Version: 6.00 Build 0)  -->
<svg version="1.1" id="Layer_1" xmlns="http://www.w3.org/2000/svg" xmlns:xlink="http://www.w3.org/1999/xlink" x="0px" y="0px"
	 viewBox="0 0 512 512" style="enable-background:new 0 0 512 512;" xml:space="preserve">
<rect x="16" y="194.4" style="fill:#FAD97F;" width="480" height="301.6"/>
<polygon style="fill:#F2385A;" points="248,60.8 197.6,30.4 248,0 "/>
<g>
	<rect x="78.4" y="292" style="fill:#FFFFFF;" width="26.4" height="24"/>
	<rect x="78.4" y="250.4" style="fill:#FFFFFF;" width="26.4" height="25.6"/>
	<rect x="120.8" y="292" style="fill:#FFFFFF;" width="26.4" height="24"/>
	<rect x="120" y="250.4" style="fill:#FFFFFF;" width="26.4" height="25.6"/>
</g>
<path d="M62.4,234.4V332h100.8v-97.6H62.4z M146.4,276H120v-25.6h26.4V276z M104.8,316H78.4v-24h26.4V316z M104.8,276H78.4v-25.6
	h26.4V276z M147.2,316h-26.4v-24h26.4V316z"/>
<g>
	<rect x="221.6" y="250.4" style="fill:#FFFFFF;" width="26.4" height="25.6"/>
	<rect x="221.6" y="292" style="fill:#FFFFFF;" width="26.4" height="24"/>
	<rect x="264" y="250.4" style="fill:#FFFFFF;" width="26.4" height="25.6"/>
	<rect x="264" y="292" style="fill:#FFFFFF;" width="26.4" height="24"/>
</g>
<path d="M205.6,234.4V332h100.8v-97.6H205.6z M248,292v24h-26.4v-24H248z M221.6,276v-25.6H248V276H221.6z M264,316v-24h26.4v24H264
	z M290.4,276H264v-25.6h26.4V276z"/>
<g>
	<rect x="365.6" y="250.4" style="fill:#FFFFFF;" width="26.4" height="25.6"/>
	<rect x="407.2" y="250.4" style="fill:#FFFFFF;" width="26.4" height="25.6"/>
	<rect x="407.2" y="292" style="fill:#FFFFFF;" width="26.4" height="24"/>
	<rect x="364.8" y="292" style="fill:#FFFFFF;" width="26.4" height="24"/>
</g>
<path d="M349.6,234.4V332h100.8v-97.6H349.6z M391.2,316h-26.4v-24h26.4V316z M392,276h-26.4v-25.6H392V276z M433.6,316h-26.4v-24
	h26.4V316z M433.6,276h-26.4v-25.6h26.4V276z"/>
<rect x="213.6" y="404" style="fill:#FFFFFF;" width="84.8" height="92"/>
<path d="M264,178.4V0h-16v178.4H0V512h512V178.4H264z M298.4,496h-84.8v-92h84.8C298.4,404,298.4,496,298.4,496z M496,496H314.4V388
	H197.6v108H16V194.4h480V496z"/>
<g>
</g>
<g>
</g>
<g>
</g>
<g>
</g>
<g>
</g>
<g>
</g>
<g>
</g>
<g>
</g>
<g>
</g>
<g>
</g>
<g>
</g>
<g>
</g>
<g>
</g>
<g>
</g>
<g>
</g>
</svg>
